<?xml version="1.0" encoding="UTF-8" standalone="no"?>
<!-- Created with Inkscape (http://www.inkscape.org/) -->

<svg
   width="12.895942mm"
   height="7.9840088mm"
   viewBox="0 0 12.895942 7.9840088"
   version="1.1"
   id="svg1"
   xmlns="http://www.w3.org/2000/svg"
   xmlns:svg="http://www.w3.org/2000/svg">
  <defs
     id="defs1">
    <rect
       x="174.36385"
       y="462.44327"
       width="174.36385"
       height="198.62317"
       id="rect4" />
  </defs>
  <g
     id="layer1"
     transform="translate(-45.500493,-124.1764)">
    <path
       id="text4"
       style="font-style:normal;font-weight:normal;font-size:40px;line-height:1.25;font-family:sans-serif;white-space:pre;shape-inside:url(#rect4);fill:#1a1a1a;fill-opacity:1;stroke:none"
       transform="scale(0.26458333)"
       d="m 210.04688,469.32813 c -4.73958,0 -8.47006,1.34766 -11.19141,4.04297 -2.70833,2.68229 -4.0625,6.3477 -4.0625,10.99609 0,2.53906 0.36459,4.75912 1.09375,6.66016 0.72917,1.88802 1.76433,3.46354 3.10547,4.72656 1.32812,1.25 2.9362,2.1875 4.82422,2.8125 1.88802,0.625 3.96484,0.9375 6.23047,0.9375 1.75781,0 3.57422,-0.26693 5.44922,-0.80078 1.88798,-0.54687 3.6263,-1.1849 5.21484,-1.91406 V 484.3086 h -11.62109 v 3.39844 h 7.79297 v 7.1289 c -0.9375,0.39063 -2.0313,0.70968 -3.28125,0.95703 -1.23698,0.2474 -2.48047,0.3711 -3.73047,0.3711 -3.41146,0 -6.10678,-1.04167 -8.08594,-3.125 -1.97917,-2.09635 -2.96875,-5.02609 -2.96875,-8.78906 0,-3.56771 0.94401,-6.39324 2.83203,-8.47657 1.90104,-2.09631 4.47917,-3.14453 7.73438,-3.14453 1.44527,0 2.73437,0.13672 3.86718,0.41016 1.14583,0.26041 2.16797,0.59245 3.06641,0.99609 0.74219,0.33854 1.4974,0.76172 2.26562,1.26953 0.76823,0.50782 1.35417,0.91797 1.75782,1.23047 h 0.35156 v -4.58984 c -1.99219,-0.95052 -3.85417,-1.6211 -5.58594,-2.01172 -1.71875,-0.40365 -3.40495,-0.60547 -5.05859,-0.60547 z m -31.13282,0.52734 v 3.08594 h 6.15235 v 16.97266 c 0,0.98958 -0.0521,1.86198 -0.15625,2.61719 -0.0911,0.7552 -0.3125,1.39323 -0.66406,1.91406 -0.33855,0.50781 -0.86589,0.89844 -1.58204,1.17187 -0.70308,0.27344 -1.65364,0.41016 -2.85156,0.41016 -0.69341,0 -1.37165,-0.0751 -2.03711,-0.21484 -0.0123,0.0151 -0.0265,0.0281 -0.0391,0.043 0.0122,0.009 0.0164,0.0223 0.0176,0.0703 10e-4,0.0265 0.0111,0.10623 -0.002,0.1289 -0.016,0.0272 -0.0406,0.0495 -0.0645,0.0684 -0.006,0.005 -0.0124,0.006 -0.0215,0.006 -0.0224,0.0996 -0.0272,0.11213 -0.19922,0.008 -0.002,-0.001 -0.003,-0.004 -0.004,-0.006 -0.002,0.0182 -0.002,0.0368 -0.004,0.0547 -3.8e-4,0.002 -0.0136,0.10555 -0.0352,0.10547 -0.10889,-4.1e-4 -0.1504,-0.008 -0.16602,-0.0332 -0.0537,0.005 -0.11161,0.0257 -0.1582,0.002 -0.0125,-0.006 -0.0158,-0.0202 -0.0156,-0.0351 -0.0516,0.0626 -0.0846,0.0698 -0.11914,0.0332 -0.003,0.007 -0.01,0.0128 -0.0176,0.0156 -0.0249,0.008 -0.0501,0.006 -0.0762,0 -0.003,0.0181 -0.008,0.0337 -0.0234,0.041 -0.16859,0.0706 -0.19379,0.0112 -0.18164,-0.0684 -0.0112,-0.0122 -9.6e-4,-0.0336 0.0117,-0.0547 0.008,-0.0272 0.0164,-0.0533 0.0234,-0.0762 0.009,-0.0253 0.0195,-0.0497 0.0293,-0.0762 0.0118,-0.0303 0.0197,-0.0506 0.0273,-0.0684 0.0182,-0.0577 0.0249,-0.0848 0.0371,-0.13477 7.4e-4,-0.007 9.2e-4,-0.0145 0.002,-0.0215 0.001,-0.0111 0.002,-0.0221 0.004,-0.0332 -0.0379,0.006 -0.0795,-0.0179 -0.0996,-0.0742 -0.12429,-0.0182 -0.14024,-0.0324 -0.12304,-0.082 -6.5e-4,-0.003 -2e-4,-0.004 0.002,-0.008 v -0.002 c 0.006,-0.0148 0.0136,-0.0334 0.0215,-0.0547 0.006,-0.0118 0.0119,-0.027 0.0195,-0.043 -0.43374,-0.11867 -0.85201,-0.23637 -1.1836,-0.34961 h -0.21484 v 2.51954 c 0.005,-0.0445 0.0113,-0.0882 0.0176,-0.13282 0.005,-0.0363 -0.007,-0.0847 0.0234,-0.10742 0.0479,-0.0336 0.1142,-0.0199 0.17188,-0.0312 0.011,0.0412 0.0272,0.0807 0.0332,0.12305 0.004,0.0287 -0.002,0.0577 -0.002,0.0879 1e-4,0.0154 7.6e-4,0.0314 0.002,0.0469 0.0266,0.0158 0.0555,0.032 0.0742,0.0547 0.0229,0.0291 0.0366,0.0842 0.0469,0.14063 0.001,0.003 0.003,0.006 0.004,0.01 2.2e-4,10e-4 -2.1e-4,0.003 0,0.004 2.5e-4,0.002 -6e-5,0.004 0,0.006 0.01,0.0591 0.0152,0.11623 0.0176,0.14258 0.009,0.0968 0.0138,0.19388 0.0176,0.29101 0.005,0.12601 0.007,0.22934 0.008,0.33203 10e-4,1.2e-4 0.003,-1.5e-4 0.004,0 0.0205,-0.04 0.0421,-0.079 0.0645,-0.11328 0.0113,-0.017 0.027,-0.0317 0.041,-0.0469 0.006,0.003 0.0132,0.003 0.0195,0.006 0.0379,-0.11679 0.051,-0.16813 0.10937,-0.27539 0.001,-0.003 0.003,-0.005 0.004,-0.008 0.003,-0.006 0.003,-0.0118 0.006,-0.0176 0.0133,-0.0291 0.0194,-0.0745 0.0508,-0.082 0.23376,-0.0453 0.17614,0.0744 0.17773,0.21875 -0.007,0.0985 -0.0179,0.19719 -0.0312,0.29493 0.001,3e-4 0.002,0.002 0.004,0.002 0.0285,-0.0804 0.061,-0.16039 0.0937,-0.23828 0.0556,-0.13077 0.0373,-0.10145 0.10742,-0.17969 0.051,0.0378 0.11568,0.0615 0.15235,0.11328 0.0151,0.0208 -0.0142,0.0478 -0.0195,0.0742 -0.009,0.0439 -0.0103,0.0662 -0.0117,0.0859 0.0293,0.004 0.0587,0.0115 0.0879,0.0137 0.011,0.0276 0.0264,0.0518 0.0332,0.082 0.006,0.0265 -0.002,0.11026 -0.004,0.13672 -10e-4,0.0261 -0.004,0.10003 -0.004,0.14062 0.049,0.002 0.0664,0.0151 0.0625,0.0684 -0.003,0.0437 -0.007,0.0468 -0.0195,0.0859 0.39589,0.0566 0.81265,0.10998 1.27539,0.15625 1.04162,0.11719 1.875,0.17578 2.5,0.17578 2.61714,0 4.70052,-0.6901 6.25,-2.07031 1.56245,-1.38021 2.34375,-3.34636 2.34375,-5.89844 V 469.8559 Z m -1.19335,26.09571 c 6.5e-4,0.004 6e-4,0.008 0.002,0.0117 v 0.002 c 0.005,0.003 0.008,0.005 0.01,0.006 -9.3e-4,-0.003 -0.004,-0.0112 -0.0117,-0.0195 z m -0.24805,0.13086 c -8.6e-4,0.004 -0.003,0.008 -0.004,0.0117 -0.002,0.007 -0.003,0.0158 -0.004,0.0234 0.002,-0.007 0.005,-0.0145 0.006,-0.0215 5e-4,-0.006 0.002,-0.009 0.002,-0.0137 z m -1.07617,2.24414 c -0.002,-3e-4 -0.003,0.003 -0.004,0.006 0.007,0.002 0.0141,0.006 0.0215,0.008 -0.01,-0.008 -0.0141,-0.0132 -0.0176,-0.0137 z m 0.0918,0.26953 c -0.002,0.005 -0.002,0.0105 -0.004,0.0156 0.005,0 0.006,-0.0194 0.004,-0.0156 z" />
    <path
       id="rect5"
       style="opacity:1;fill:#1a1a1a;stroke:none;stroke-width:0.264583"
       d="m 46.896879,128.16944 c -0.0023,0.004 -0.0093,0.0187 -0.01033,0.0207 -0.02398,0.0463 -0.04881,0.0915 -0.07338,0.13746 -0.0077,0.0144 -0.0059,0.0109 -0.01137,0.0212 -0.0077,0.0474 -0.01576,0.0949 -0.0248,0.14212 0.0039,0.004 0.0077,0.008 0.01188,0.0109 -3e-4,0.003 -0.0044,0.0441 -0.0047,0.0491 -0.0015,0.0307 -0.0011,0.10079 -0.001,0.11989 3.5e-5,0.01 -4.2e-5,0.02 0,0.03 1.05e-4,0.002 4.14e-4,0.003 5.17e-4,0.005 0.0025,0.0428 0.0038,0.0858 0.0052,0.12867 0.0028,7.1e-4 0.0051,10e-4 0.0083,0.002 0.005,0.001 0.0013,0.0105 0.0026,0.0155 7e-4,0.003 0.0024,0.006 0.0036,0.008 0.0036,0.007 0.0072,0.0152 0.01085,0.0222 0.02085,0.0434 0.03932,0.088 0.05374,0.13384 2.08e-4,-3.2e-4 2.98e-4,-7.4e-4 5.17e-4,-0.001 0.0035,-0.005 0.005,-0.006 0.01292,0.002 0.0011,0.001 -0.0011,0.003 -0.0016,0.004 8.29e-4,1.9e-4 0.0021,4.4e-4 0.0031,5.2e-4 0.0013,-7.2e-4 0.0032,-0.002 0.0047,-0.002 0.005,0 0.0055,4.5e-4 0.0052,0.002 l -5.17e-4,5.2e-4 c 5.48e-4,5.4e-4 0.0011,10e-4 0.0015,0.002 l 5.17e-4,5.2e-4 c 9.7e-5,1.7e-4 6.55e-4,-1.5e-4 0.0016,0.002 v 5.1e-4 c 0.0011,0.001 0.0018,0.002 0.0026,0.003 h 5.17e-4 l 5.17e-4,5.2e-4 5.17e-4,5.2e-4 c 1.4e-4,3.5e-4 2.49e-4,0.001 5.16e-4,0.002 l 5.17e-4,5.2e-4 v 5.2e-4 h 5.17e-4 5.17e-4 c 9.9e-5,2.5e-4 8.52e-4,7.4e-4 10e-4,0.002 2.42e-4,4.2e-4 0.001,8.7e-4 0.001,0.001 l 5.17e-4,5.2e-4 v 5.1e-4 5.2e-4 h 5.16e-4 c 2e-4,0 0.0022,0.002 0.0031,0.003 l 0.0026,0.003 5.16e-4,5.2e-4 v 5.2e-4 h 5.17e-4 5.17e-4 l 5.17e-4,5.1e-4 5.17e-4,-5.1e-4 5.16e-4,5.1e-4 c -1.2e-4,-2.5e-4 -6.08e-4,2.8e-4 -0.001,0 -3.8e-4,-2.3e-4 -10e-4,1.2e-4 -10e-4,0 v 5.2e-4 c 3.04e-4,2.8e-4 6.55e-4,8.7e-4 0.0016,0.001 v 5.2e-4 h 5.16e-4 c 1.1e-5,-3.6e-4 2e-5,-9.9e-4 0,-10e-4 h 5.17e-4 c 1.51e-4,1.7e-4 -1.26e-4,10e-4 0,10e-4 1.26e-4,1.4e-4 0.001,-1.1e-4 0.001,0 v 5.2e-4 5.1e-4 5.2e-4 5.2e-4 c 3.73e-4,3.2e-4 8e-4,1.4e-4 0.0016,5.1e-4 v 5.2e-4 c 3.89e-4,7.6e-4 0.001,0.002 0.001,0.002 l 8.410917,-0.0128 -0.0021,-0.89957 z m -0.168982,0.31419 c -0.004,0.007 -0.0027,0.004 -0.0083,0.0139 -0.004,0.006 -0.0055,0.0195 -0.01189,0.0191 3.31e-4,0.0175 7.05e-4,0.0352 10e-4,0.0527 0.0011,-0.005 0.0019,-0.01 0.0031,-0.015 -0.0026,-0.0124 -0.0049,-0.0246 0.0031,-0.0326 0.0018,-0.002 0.0039,-0.004 0.0062,-0.005 0.0022,-0.0112 0.0046,-0.0224 0.0067,-0.0336 z m -0.06718,0.18604 c -3.22e-4,0.002 -7.06e-4,0.004 -10e-4,0.006 3.6e-4,0.002 6.8e-4,0.004 10e-4,0.007 -2e-5,-0.004 1.3e-5,-0.009 0,-0.0129 z m -0.19482,0.24598 c -3.12e-4,0.005 -7.69e-4,0.01 -10e-4,0.0145 0.0019,-0.002 0.004,-0.003 0.0057,-0.005 v -5.2e-4 c -0.0018,-0.003 -0.0033,-0.006 -0.0047,-0.009 z m 0.144694,0.0109 c -0.0011,0.005 -0.0021,0.01 -0.0031,0.0145 -0.0039,0.0298 -0.0085,0.0632 -0.01189,0.0899 -9.5e-4,0.008 -0.0017,0.0152 -0.0026,0.0227 h 0.0041 c 0.0062,-0.0248 0.01247,-0.0496 0.0186,-0.0744 -0.0018,-0.0176 -0.0034,-0.0351 -0.0052,-0.0527 z m -0.06821,0.0977 c -0.0028,8.6e-4 -0.0057,0.002 -0.0088,0.003 -0.0018,0.009 -0.0035,0.0182 -0.0052,0.0269 h 0.01447 c 0.0011,-0.009 0.002,-0.0176 0.0031,-0.0264 -0.0012,-0.001 -0.0026,-0.002 -0.0036,-0.003 z m 0.340547,0.0191 c 4.3e-5,8.3e-4 7.3e-5,0.002 0,0.003 4e-6,9.1e-4 -6e-6,0.002 0,0.003 h 0.0052 c -0.0012,-8.8e-4 -0.0023,-0.002 -0.0031,-0.003 -3.4e-4,-7e-4 -10e-4,-9e-4 -10e-4,-0.002 -4.55e-4,-2.2e-4 -9.97e-4,-9.6e-4 -10e-4,-0.001 z" />
    <path
       style="opacity:1;fill:none;stroke:#1a1a1a;stroke-width:0.88;stroke-dasharray:none"
       id="path6"
       d="m 47.159024,131.60581 a 1.0209258,1.5135463 0 0 1 -1.009428,-0.57634 1.0209258,1.5135463 0 0 1 -0.09348,-1.59765 1.0209258,1.5135463 0 0 1 0.927406,-0.82543" />
  </g>
</svg>
